<svg id="visual" viewBox="0 0 1920 1080" width="1920" height="1080" xmlns="http://www.w3.org/2000/svg" xmlns:xlink="http://www.w3.org/1999/xlink" version="1.1"><rect x="0" y="0" width="1920" height="1080" fill="#1E1B18"></rect><path d="M727 1080L767.7 990C808.3 900 889.7 720 889.5 540C889.3 360 807.7 180 766.8 90L726 0L1920 0L1920 90C1920 180 1920 360 1920 540C1920 720 1920 900 1920 990L1920 1080Z" fill="#3e92cc"></path><path d="M1204 1080L1184 990C1164 900 1124 720 1071 540C1018 360 952 180 919 90L886 0L1920 0L1920 90C1920 180 1920 360 1920 540C1920 720 1920 900 1920 990L1920 1080Z" fill="#6e81d0"></path><path d="M1057 1080L1134 990C1211 900 1365 720 1352.5 540C1340 360 1161 180 1071.5 90L982 0L1920 0L1920 90C1920 180 1920 360 1920 540C1920 720 1920 900 1920 990L1920 1080Z" fill="#a368be"></path><path d="M1689 1080L1614.3 990C1539.7 900 1390.3 720 1366.8 540C1343.3 360 1445.7 180 1496.8 90L1548 0L1920 0L1920 90C1920 180 1920 360 1920 540C1920 720 1920 900 1920 990L1920 1080Z" fill="#ca4994"></path><path d="M1710 1080L1733.2 990C1756.3 900 1802.7 720 1766.7 540C1730.7 360 1612.3 180 1553.2 90L1494 0L1920 0L1920 90C1920 180 1920 360 1920 540C1920 720 1920 900 1920 990L1920 1080Z" fill="#d8315b"></path></svg>