<svg xmlns="http://www.w3.org/2000/svg" viewBox="0 0 197.84 81.7"><defs><style>.cls-1{fill:#fff;}</style></defs><title>Recurso 2disney</title><g id="Capa_2" data-name="Capa 2"><g id="Capa_1-2" data-name="Capa 1"><path class="cls-1" d="M38.57,30.46c.92,0,1.81,0,2.69,0a45.51,45.51,0,0,1,15.8,2.84,10.26,10.26,0,0,1,5.07,4c2.2,3.52-.42,8.42-4.71,8.86-1.27.12-2.65-.63-4-1.07-.53-.18-.5-.66,0-.95s1.27-.69,1.9-1c.79-.41,1.75-.76,1.74-1.81s-1-1.34-1.76-1.68a25.5,25.5,0,0,0-7.83-1.8c-2.88-.29-5.77-.38-8.65-.55a4.89,4.89,0,0,0-.69,0c.11,6,.22,12,.34,18.1,2.13.26,4.18.59,6.25.75a39.8,39.8,0,0,0,19.5-3.26,16.54,16.54,0,0,0,6.27-4.57c3.4-4.15,3.65-8.78,1.81-13.62a27.27,27.27,0,0,0-7.17-10C59,19,51.88,14.85,44.22,11.53A76.32,76.32,0,0,0,18.81,5.25,39.9,39.9,0,0,0,5.18,6.35a7.41,7.41,0,0,0-.93.35,2.15,2.15,0,0,0-.46.36c.34.12.57.21.81.28.87.26,1.76.5,2.62.8a.84.84,0,0,1,.48.58,1,1,0,0,1-.44.64c-1.38.88-5.11.71-6.44-.25A1.6,1.6,0,0,1,.2,7,21,21,0,0,1,3.08,3,6.55,6.55,0,0,1,5.81,1.89,45,45,0,0,1,22.36.13,81.56,81.56,0,0,1,62.56,14,50.35,50.35,0,0,1,77,28.07c2.15,3.27,3.89,6.77,4.2,10.72A18.78,18.78,0,0,1,75,54.84a28.58,28.58,0,0,1-11.45,6,42.88,42.88,0,0,1-16.39,1.66c-2.56-.24-5.1-.76-7.65-1.16-.26,0-.53-.11-.83-.18-.08.62-.15,1.17-.23,1.71-.24,1.64-.87,2.24-2.74,2.6a2.88,2.88,0,0,1-3.33-1.47,20.52,20.52,0,0,1-1.23-4.45A1.94,1.94,0,0,0,29.91,58,44.76,44.76,0,0,1,13.29,44.7a4.68,4.68,0,0,1,.28-6.36,16.69,16.69,0,0,1,5.87-3.69,49.93,49.93,0,0,1,11.22-3.33c.58-.1.74-.31.81-.89.38-3.57.81-7.15,1.28-10.71a7.48,7.48,0,0,1,.69-2.13c.46-1,1.1-1.08,1.88-.3a8.82,8.82,0,0,1,2.57,5.54c.21,2.34.4,4.69.6,7C38.51,30.05,38.54,30.24,38.57,30.46Zm-7.16,7.08A61.35,61.35,0,0,0,19,39.41a23.53,23.53,0,0,0-3.36,1.19c-1.38.62-1.56,1.74-.58,2.89l.35.36A39,39,0,0,0,29,52.78l1.85.71Z"/><path class="cls-1" d="M176,46.77c1.64-2.22,3.09-4.44,4.8-6.43,1.94-2.27,4.05-4.4,6.21-6.47a9.05,9.05,0,0,1,4.58-2.41,4.31,4.31,0,0,1,4.72,2,10,10,0,0,1,1.48,4.87c.53,6.54-2.37,11.57-7.07,15.76a12.77,12.77,0,0,1-8.52,3.66,7.51,7.51,0,0,1-1.9-.14c-.61-.14-.81.08-1,.6a87.12,87.12,0,0,0-5.81,21.68,3.39,3.39,0,0,1-.36,1.17,1,1,0,0,1-1.34.51,5.92,5.92,0,0,1-1.44-.8,9.25,9.25,0,0,1-3.53-7.06A32.21,32.21,0,0,1,169,62.06c1-2.87,2.25-5.65,3.37-8.48a1.51,1.51,0,0,0,.06-1.06,13.59,13.59,0,0,1-.61-10.9A28.1,28.1,0,0,1,180,29.28a5.21,5.21,0,0,1,1.52-.65,4,4,0,0,1,.38,1.52,12.06,12.06,0,0,1-.9,3.25c-1,2-2.18,4-3.26,6a13.06,13.06,0,0,0-1.81,6.9A4.5,4.5,0,0,0,176,46.77Zm6.67,3.66.24.2a13.46,13.46,0,0,0,8.7-4.83,10.82,10.82,0,0,0,2.69-6.89c0-.71.15-1.58-.65-1.92s-1.42.37-1.88.93c-1.93,2.32-3.89,4.62-5.68,7C184.81,46.69,183.79,48.6,182.66,50.43Z"/><path class="cls-1" d="M112.73,29.38c1.85.25,4.33.55,6.79.92a7.35,7.35,0,0,1,1.7.65,1,1,0,0,1,.57,1.25,3.08,3.08,0,0,1-2.56,2.61c-1.79.23-3.6.28-5.39.49-4.44.53-8.87,1.1-13.3,1.66a3,3,0,0,0-1.1.34,3,3,0,0,0-.67.75c.25.18.49.49.75.52,2.7.33,5.4.69,8.11.87a29,29,0,0,1,8.43,1.33c3.16,1.19,4.64,3.19,4.7,6.54a22.07,22.07,0,0,1-.37,4.29,4.49,4.49,0,0,1-2.52,3.33c-5.43,2.62-11,3.55-16.83,1.35a13.71,13.71,0,0,1-5.11-3.49,4.74,4.74,0,0,1,2-8,14.69,14.69,0,0,1,6.52-.43,43.43,43.43,0,0,1,5.63,1.11,8,8,0,0,1,2.43,1.2c.81.53.79,1.12,0,1.77a6.13,6.13,0,0,1-3.7,1.31,11.61,11.61,0,0,1-6.35-1.29,10.89,10.89,0,0,0-2.93-.87,2,2,0,0,0-1.38.37,1.56,1.56,0,0,0,.44,2.91,11.16,11.16,0,0,0,3.24.69,24.45,24.45,0,0,0,9.94-1.18,14.14,14.14,0,0,0,3.5-1.85c1.43-1.05,1.28-2.63-.4-3.22a29.28,29.28,0,0,0-6.11-1.48c-3.17-.39-6.37-.43-9.55-.73A28,28,0,0,1,95,42.27a2.3,2.3,0,0,1-1.77-2.35c-.14-4.22,1-6.09,4.17-7.64a29.74,29.74,0,0,1,9.93-2.62C108.91,29.48,110.5,29.49,112.73,29.38Z"/><path class="cls-1" d="M153.36,36.24c-.49-.07-.84-.1-1.19-.16a4.8,4.8,0,0,1-3.52-2.89c-.41-.84-.25-1.32.68-1.58a34.21,34.21,0,0,1,3.89-.88,81.61,81.61,0,0,1,13.33-1.25,4.38,4.38,0,0,1,3.59,1.6,13.42,13.42,0,0,1,1.55,2.25c.73,1.29.35,2.1-1.12,2.28-3.36.39-6.73.72-10.1,1-1.63.14-1.64.08-2.12,1.62-.19.6-.37,1.21-.57,1.86h2c1.75,0,3.5,0,5.25,0,1,0,1.38.41,1.39,1.44,0,.56,0,1.11,0,1.67-.06,1.11-.36,1.5-1.5,1.6-2.13.18-4.26.28-6.4.42-.91.06-2.06-.18-2.67.28s-.65,1.62-.93,2.49c-.17.55-.33,1.11-.5,1.67-.28.95-.17,1.07.83.88,2.21-.4,4.42-.84,6.63-1.23,1.12-.19,2.25-.33,3.39-.41a2.78,2.78,0,0,1,2.6,1.85,2,2,0,0,1-.63,2.6,22.64,22.64,0,0,1-12.53,5.88,6.63,6.63,0,0,1-7-6.06A17.25,17.25,0,0,1,149,46.16a2.71,2.71,0,0,0,0-1.33c-.1-.71-.37-1.4-.43-2.1-.11-1.29.21-1.76,1.49-1.94a1.92,1.92,0,0,0,1.72-1.37C152.25,38.38,152.8,37.38,153.36,36.24Z"/><path class="cls-1" d="M129,41.3c-.09.73-.23,1.46-.27,2.2-.18,3.26-.32,6.53-.51,9.79a11,11,0,0,1-.35,2.05,2.42,2.42,0,0,1-2.29,2,2.77,2.77,0,0,1-2.71-1.7,10.31,10.31,0,0,1-.61-2.83,50.25,50.25,0,0,1,2-17.24A11,11,0,0,1,125.41,33c1.12-1.92,2.57-2.09,4.1-.5a47.52,47.52,0,0,1,6.1,8.28c1,1.68,2.09,3.34,3.13,5a5.41,5.41,0,0,0,.64.87,3,3,0,0,0,.68.39c.12-.23.34-.46.34-.69a15.38,15.38,0,0,0-.24-2.89c-1.12-4.85-2.31-9.68-3.45-14.53a7.3,7.3,0,0,1-.27-2,1.8,1.8,0,0,1,.55-1.33,1.65,1.65,0,0,1,1.42.25,19.52,19.52,0,0,1,3,2.72A20.83,20.83,0,0,1,145.83,39a28.18,28.18,0,0,1-.57,12.52,6.05,6.05,0,0,1-2.54,3.58,3.64,3.64,0,0,1-4.68-.34,20.07,20.07,0,0,1-3-3.65c-1.59-2.59-3-5.3-4.5-8-.37-.66-.79-1.29-1.19-1.94Z"/><path class="cls-1" d="M84.05,24.32a19.61,19.61,0,0,1-1.29,1.74,1.41,1.41,0,0,1-2.41,0c-1-1.2-1.75-2.5-1.23-4.18a.92.92,0,0,0-.22-.69,6.49,6.49,0,0,1-1-7.71C80.21,8.74,84.15,6,89.18,4.68a14.8,14.8,0,0,1,7.24-.35,4.25,4.25,0,0,1,3,2,.89.89,0,0,0,.53.31c.27.07.55,0,.83.09,3.32.62,4.85,3,4,6.27a12.13,12.13,0,0,1-3.66,6,28.78,28.78,0,0,1-5,3.9C92.36,25.1,88.33,26,84.05,24.32Zm2.21-4.49a3.4,3.4,0,0,0,.62.15,39.21,39.21,0,0,0,5,0,10.68,10.68,0,0,0,8.49-5.57,5,5,0,0,0,.54-2.05,1.59,1.59,0,0,0-1.78-1.82,9.65,9.65,0,0,0-2.82.59,19.31,19.31,0,0,0-5.63,3.79A25.7,25.7,0,0,0,86.26,19.83Zm-4.71-2.45a31.27,31.27,0,0,1,7-7.46,8.08,8.08,0,0,0-7,5.12A2.38,2.38,0,0,0,81.55,17.38Z"/><path class="cls-1" d="M90.76,47c0,1.86.07,5.16,0,8.45-.06,2.45-1.31,3.3-3.74,2.78a2.69,2.69,0,0,1-2.53-2.74,28.8,28.8,0,0,1-.36-4.63c.16-5.6.4-11.19.67-16.78a8.75,8.75,0,0,1,.62-2.65,1.59,1.59,0,0,1,2.92-.46,7.35,7.35,0,0,1,1.8,4.46C90.26,38.76,90.48,42.14,90.76,47Z"/></g></g></svg>