<svg xmlns="http://www.w3.org/2000/svg" viewBox="0 0 200.06 80.41"><defs><style>.cls-1{fill:#ec1d24;}.cls-2{fill:#fefefe;}.cls-3{fill:#f15a5f;}.cls-4{fill:#f68f93;}.cls-5{fill:#ee3a40;}.cls-6{fill:#f3787c;}.cls-7{fill:#f9c0c2;}.cls-8{fill:#f69599;}</style></defs><title>Recurso 1marvel</title><g id="Capa_2" data-name="Capa 2"><g id="Capa_1-2" data-name="Capa 1"><path class="cls-1" d="M200.05.1q0,40,0,80c0,.29-.07.35-.36.35H.36c-.29,0-.36-.06-.36-.35q0-40,0-80a.85.85,0,0,1,.42,0h199.2A.85.85,0,0,1,200.05.1Z"/><path class="cls-2" d="M200.05.1H0S0,0,.05,0H199.7C199.82,0,200-.07,200.05.1Z"/><path class="cls-2" d="M112.7,16.85l-.51-4.25q-.36-2.88-.74-5.76c0-.24,0-.32.27-.32q5.88,0,11.76,0c.32,0,.33.16.36.37l.72,5.37q.57,4.17,1.13,8.34.61,4.5,1.22,9c.41,3,.82,5.95,1.22,8.93.38,2.78.75,5.56,1.13,8.34a1.1,1.1,0,0,0,.14.52c.21-1.57.43-3.1.64-4.63q.6-4.44,1.22-8.88l1.2-8.81q.6-4.41,1.22-8.84c.37-2.74.75-5.48,1.12-8.23.06-.41.12-.82.16-1.23,0-.18.1-.26.28-.25a1.76,1.76,0,0,0,.23,0H168.8c.55,0,.49-.06.49.51,0,3.79,0,7.57,0,11.36,0,.34-.06.45-.44.45-3.37,0-6.74,0-10.12,0-.33,0-.4.1-.4.42q0,7.22,0,14.43c0,.33.08.42.41.42,3.37,0,6.75,0,10.12,0,.35,0,.43.09.43.44q0,5.73,0,11.47c0,.38-.13.43-.46.43H158.76c-.31,0-.42.07-.42.4q0,7.37,0,14.71c0,.31.08.39.39.39h10.16c.32,0,.41.07.41.4,0,3.79,0,7.57,0,11.36,0,.3-.08.38-.39.38-7.42,0-14.84,0-22.27,0-.43,0-.4-.2-.4-.49V13.92a1.38,1.38,0,0,0-.07-.61c-.15.94-.29,1.8-.42,2.67l-1.68,10.58c-.54,3.38-1.07,6.75-1.61,10.13s-1.11,7-1.67,10.54-1.13,7.08-1.69,10.63-1.12,7-1.67,10.54c-.28,1.75-.56,3.49-.83,5.24,0,.26-.1.4-.42.4q-6.72,0-13.44,0c-.35,0-.45-.11-.51-.43q-1.64-9.93-3.3-19.84l-2.7-16.1-.9-5.38a1.05,1.05,0,0,1-.1-.58c0-.13-.1-.24-.08-.33,0,.12.1.25.08.41,0,.77,0,1.53,0,2.29a20,20,0,0,1-7.06,13.54.42.42,0,0,0-.13.53q2.79,9.46,5.57,18.93c.65,2.19,1.29,4.39,1.94,6.58.09.29,0,.35-.26.35q-5.66,0-11.33,0c-.28,0-.33-.13-.39-.35q-2.83-10.83-5.68-21.66c-.07-.27-.17-.34-.44-.3-.75.13-1.5.23-2.24.33-.18,0-.26.09-.24.27s0,.21,0,.31c0,7,0,14,0,20.92,0,.41-.12.48-.5.48q-11.13,0-22.27,0c-.29,0-.42,0-.46-.38-.43-3.22-.88-6.43-1.31-9.65,0-.27-.12-.37-.41-.37q-4.4,0-8.79,0c-.27,0-.36.09-.39.33q-.59,4.35-1.19,8.69c-.05.38-.11.75-.15,1.13,0,.18-.08.26-.26.24A1.76,1.76,0,0,0,59,74c-7.55,0-15.09,0-22.63,0-.37,0-.47-.1-.47-.47q0-15.54,0-31.06a1,1,0,0,0-.07-.55l-.58,3.42q-1,5.92-2,11.84-1,5.69-1.91,11.37c-.29,1.72-.58,3.43-.86,5.15,0,.2-.1.29-.32.29-2,0-4,0-6,0-.23,0-.27-.1-.3-.29q-.57-3.36-1.15-6.72L20.67,54.88q-1-6-2.06-12.06a5.16,5.16,0,0,0-.23-.94v.41q0,15.63,0,31.26c0,.38-.07.49-.48.49-3.78,0-7.55,0-11.33,0-.32,0-.41-.06-.41-.39q0-33.37,0-66.73c0-.29.06-.39.38-.39q7.38,0,14.77,0c.31,0,.38.11.42.39.71,4.59,1.44,9.19,2.16,13.78q.95,6.15,1.9,12.29l1.26,8c0,.06.09.06.13,0,.54-3.35,1.07-6.7,1.61-10l1.68-10.5L32.16,10c.17-1.05.35-2.1.5-3.15,0-.24.12-.3.35-.3,5,0,9.92,0,14.88,0,.36,0,.33.17.33.4q0,11.4,0,22.79V68h.08c.1-.69.21-1.37.32-2.06l1.77-11.83c.54-3.56,1.06-7.12,1.6-10.68l1.77-11.72q.91-6.1,1.82-12.22L57.34,7.82c0-.35.12-.7.15-1.05s.12-.26.33-.26H61c4.1,0,8.21,0,12.31,0,.33,0,.45.07.51.43Q75,14.87,76.18,22.79q1.06,7.16,2.14,14.3Q79.51,45,80.71,52.93q.95,6.26,1.88,12.53a1.23,1.23,0,0,1,0,.19,1.5,1.5,0,0,1,.11.36.28.28,0,0,1,0-.29q0-29.36,0-58.72c0-.41.12-.49.5-.48,3.8,0,7.61,0,11.41,0,8,0,13.82,3.54,17.79,10.36l.15.23C112.81,17.08,112.71,17,112.7,16.85Z"/><path class="cls-2" d="M171.41,40.25V7c0-.58,0-.5.5-.5H183c.5,0,.5,0,.5.5V61.32c0,.67-.08.57.59.57,3.14,0,6.28,0,9.42,0,.31,0,.38.09.38.39,0,3.79,0,7.57,0,11.36,0,.33-.1.4-.41.39-7.22,0-14.43,0-21.65,0-.36,0-.44-.1-.44-.45Q171.42,56.92,171.41,40.25Z"/><path class="cls-3" d="M115.2,34.13V31.71s0,0,0,0l.08.62a8.85,8.85,0,0,0,0,1.26A1.2,1.2,0,0,1,115.2,34.13Z"/><path class="cls-4" d="M82.75,65.72a.84.84,0,0,1,0,.52c0-.2-.14-.38-.1-.59Z"/><path class="cls-5" d="M112.7,16.85a.81.81,0,0,1,.06.46c-.12,0-.12-.12-.14-.2Z"/><path class="cls-6" d="M27.19,41c0,.07,0,.19-.05.19s-.09-.11-.08-.19Z"/><path class="cls-1" d="M94.94,29.44c0-3.48,0-7,0-10.45,0-.32.06-.43.4-.4A7.56,7.56,0,0,1,102,23.34a15.1,15.1,0,0,1,1.06,7.1,12.49,12.49,0,0,1-1.46,5.41,8.1,8.1,0,0,1-5.09,4.24,7.34,7.34,0,0,1-1.23.2c-.26,0-.33,0-.33-.31,0-1.58,0-3.15,0-4.72Z"/><path class="cls-1" d="M65.67,24.39c.19.91.25,1.84.36,2.77.34,2.69.65,5.39,1,8.09l.9,7.47c.33,2.69.65,5.39,1,8.08.07.62.13,1.24.22,1.86,0,.24,0,.28-.24.28H62.62c-.23,0-.31,0-.28-.29.32-2.65.62-5.29.93-7.94s.6-5.14.89-7.71l.9-7.74c.18-1.5.35-3,.52-4.49C65.67,24.65,65.53,24.49,65.67,24.39Z"/><path class="cls-7" d="M115.25,31.72h0c-.14-.16-.09-.33,0-.57Z"/><path class="cls-8" d="M65.67,24.39a.85.85,0,0,1-.09.38C65.56,24.63,65.53,24.49,65.67,24.39Z"/></g></g></svg>