<svg xmlns="http://www.w3.org/2000/svg" viewBox="0 0 200.23 57.9"><defs><style>.cls-1{fill:#ffcd00;}.cls-2{fill:#fff;}</style></defs><title>Recurso 5national</title><g id="Capa_2" data-name="Capa 2"><g id="Capa_1-2" data-name="Capa 1"><g id="CABECERAS-NUEVAS"><g id="Mobile_NG_02" data-name="Mobile NG 02"><g id="NG-256px-negro-Copy"><g id="Layer_1" data-name="Layer 1"><path id="Shape" class="cls-1" d="M0,57.9V0H41.13V57.9ZM35.11,52V5.78H5.88V52Z"/><g id="Group"><path id="Shape-2" data-name="Shape" class="cls-2" d="M68.31,26h-2.5c-3.38-4.62-6.61-9.24-10-14.44V26H52.89V5.92h2.49c3.38,4.62,6.61,9.24,10,14.29V5.92h2.79V26Z"/><path id="Shape-3" data-name="Shape" class="cls-2" d="M74.92,18.05a81.09,81.09,0,0,0,2.35-8.23c.88,3.17,1.62,5.48,2.35,8.23ZM76.24,5.92,69.19,26h3.09L74,20.5h6.17L81.83,26h4L79.18,5.92Z"/><polygon id="Shape-4" data-name="Shape" class="cls-2" points="89.02 25.99 89.02 8.52 83.73 8.52 83.73 5.92 97.98 5.92 97.98 8.66 92.55 8.66 92.55 25.99 89.02 25.99"/><polygon id="Shape-5" data-name="Shape" class="cls-2" points="99.01 25.99 99.01 5.92 102.54 5.92 102.54 25.99 99.01 25.99"/><path id="Shape-6" data-name="Shape" class="cls-2" d="M113.41,23.39c-3.67,0-5-3.9-5-7.8s1.46-7.22,5-7.22,5,3.61,5,7.22C118.4,19.49,117.08,23.39,113.41,23.39Zm0,2.89c5.29,0,8.67-4.62,8.67-10.69,0-5.63-3.68-10.1-8.67-10.1s-8.67,4.47-8.67,10.1C104.74,21.66,108,26.28,113.41,26.28Z"/><path id="Shape-7" data-name="Shape" class="cls-2" d="M139.56,26h-2.5c-3.38-4.62-6.61-9.24-10-14.44V26h-2.79V5.92h2.5c3.38,4.62,6.61,9.24,10,14.29V5.92h2.79Z"/><path id="Shape-8" data-name="Shape" class="cls-2" d="M146.17,18.05a81.09,81.09,0,0,0,2.35-8.23c.88,3.17,1.62,5.48,2.35,8.23Zm1.47-12.13L140.44,26h3.09l1.76-5.49h6.17L153.07,26h4L150.58,5.92Z"/><polygon id="Shape-9" data-name="Shape" class="cls-2" points="158.07 5.92 161.59 5.92 161.59 23.39 168.5 23.39 168.5 25.99 158.07 25.99 158.07 5.92"/><path id="Shape-10" data-name="Shape" class="cls-2" d="M66.11,42.74v8.37a16.58,16.58,0,0,1-5.88,1.3c-6,0-9.84-4.62-9.84-10.54,0-5.49,3.82-10.25,10-10.25a8.84,8.84,0,0,1,5,1.59L64.2,35.66a7.36,7.36,0,0,0-3.68-1c-3.67,0-6.31,2.89-6.31,7.51s2.94,7.65,5.87,7.65a6.91,6.91,0,0,0,2.5-.43V43.17h3.53Z"/><polygon id="Shape-11" data-name="Shape" class="cls-2" points="78.59 34.51 72.72 34.51 72.72 39.99 78.45 39.99 78.45 42.74 72.72 42.74 72.72 49.23 79.62 49.23 79.62 51.98 69.19 51.98 69.19 31.91 78.59 31.91 78.59 34.51"/><path id="Shape-12" data-name="Shape" class="cls-2" d="M89.46,49.52c-3.67,0-5-3.89-5-7.79s1.47-7.22,5-7.22,5,3.61,5,7.22S93.14,49.52,89.46,49.52Zm0,2.89c5.29,0,8.67-4.62,8.67-10.68,0-5.63-3.67-10.11-8.67-10.11S80.8,36.1,80.8,41.73C80.8,47.65,84.18,52.41,89.46,52.41Z"/><path id="Shape-13" data-name="Shape" class="cls-2" d="M115,42.74v8.37a16.58,16.58,0,0,1-5.88,1.3c-6,0-9.84-4.62-9.84-10.54,0-5.49,3.82-10.25,10-10.25a8.84,8.84,0,0,1,5,1.59l-1.17,2.31a7.29,7.29,0,0,0-3.68-1c-3.67,0-6.31,2.89-6.31,7.51s2.93,7.65,5.87,7.65a7,7,0,0,0,2.5-.44V43H115Z"/><path id="Shape-14" data-name="Shape" class="cls-2" d="M121.78,34.51h1.62c2.06,0,3.23,1.15,3.23,3.32,0,2.74-1.61,3.9-3.38,4a4.94,4.94,0,0,0-1.47.15ZM130.6,52l-4.12-8.38A6.82,6.82,0,0,0,130,37.68c0-3.89-2.5-5.77-6.32-5.77h-5.43V52h3.52V44.33h1.47L126.63,52Z"/><path id="Shape-15" data-name="Shape" class="cls-2" d="M136.47,44a78.58,78.58,0,0,0,2.35-8.23c.89,3.17,1.62,5.48,2.35,8.23Zm1.33-12.13L130.74,52h3.09l1.76-5.49h6.17L143.38,52h4l-6.46-20.07Z"/><path id="Shape-16" data-name="Shape" class="cls-2" d="M151.9,52h-3.53V31.91h5.44c4,0,6.32,1.88,6.32,5.77a6.62,6.62,0,0,1-6.76,6.79h-1.62v-2.6a5.75,5.75,0,0,0,1.47-.14,3.69,3.69,0,0,0,3.38-4,3,3,0,0,0-3.23-3.32h-1.62V52Z"/><polygon id="Shape-17" data-name="Shape" class="cls-2" points="176.43 51.98 172.91 51.98 172.91 42.3 165.56 42.3 165.56 51.98 162.03 51.98 162.03 31.91 165.56 31.91 165.56 39.7 172.91 39.7 172.91 32.05 176.43 32.05 176.43 51.98"/><polygon id="Shape-18" data-name="Shape" class="cls-2" points="179.81 51.98 179.81 31.91 183.34 31.91 183.34 51.98 179.81 51.98"/><path id="Shape-19" data-name="Shape" class="cls-2" d="M199.05,35.52a6.86,6.86,0,0,0-3.67-1.16c-3.52,0-6.17,2.89-6.17,7.51,0,4.77,2.94,7.65,6.32,7.65a6.69,6.69,0,0,0,3.52-1l1,2.46a9,9,0,0,1-4.55,1.44c-6,0-9.84-4.62-9.84-10.54,0-5.49,3.82-10.25,9.84-10.25a8.3,8.3,0,0,1,4.7,1.59Z"/></g></g></g></g></g></g></g></svg>