<svg xmlns="http://www.w3.org/2000/svg" viewBox="0 0 200.06 43.33"><defs><style>.cls-1{fill:#fff;}</style></defs><title>Recurso 2pizar</title><g id="Capa_2" data-name="Capa 2"><g id="Capa_1-2" data-name="Capa 1"><path class="cls-1" d="M169,4.06l-7.12-2.23a8.33,8.33,0,0,1,.27-1.31c8.48.08,17-.24,25.42.51,4.83.43,8.79,3.36,9.5,8.94s-1.25,8.54-7.37,11.66a9.39,9.39,0,0,0-1.44,1.18c2,2.83,4,5.65,6,8.41a65.7,65.7,0,0,1,5.83,8.59c-10.7-.6-14.17-11.09-22.25-16.7v12.6l7,2.32-.26,1.38h-19.4c5.39-3.3,3.76-8.38,3.79-12.91C169,19,169,11.58,169,4.06Zm8.58,15.76c8-.17,10.56-2.11,10.55-7.82,0-5.5-3-7.87-10.55-8.14Z"/><path class="cls-1" d="M131.56,3.86l-6.37-2.34.25-1h22.4l.19,1-4.86,2.23c4.11,10.48,8,20.85,12.32,31.05.71,1.67,3.2,2.59,5.83,4.6H140.21l5.6-3.69c-.36-8.89-2.69-12.05-9.07-12.06-7.89,0-9,1.34-9.45,12l5.16,3L132,39.7H113.26c.39-1,.57-2,.86-2,5.37-.56,6.46-4.77,7.95-8.86C125.09,20.52,128.32,12.32,131.56,3.86ZM141,19.79c-1.82-4.76-3.28-8.6-5.25-13.76-1.81,5.44-3.14,9.43-4.59,13.76Z"/><path class="cls-1" d="M70.1.37H88.38L84.44,3.64l6.68,9.71,6.94-9.62L93.12,1.4l.19-.9h18.25l.71,1.42c-7.91.53-11.42,6.4-15.8,11.33-2.2,2.47-2,4.23-.25,6.76,5.22,7.52,10.2,15.2,14.73,23.32-10.43-3.25-14.32-13.67-22.59-20.48l-8,12.46,7.57,3.09-.39,1.25H69.14L87.5,19.43Z"/><path class="cls-1" d="M15.89,35.49l7.58,2.78-.36,1.31H.61L0,38.42l7.53-3V4L.38,1.84.52.59A20.84,20.84,0,0,1,4.14,0c7.15.09,14.31,0,21.43.52C29.79.81,34,2,35.23,7c1.15,4.76-.8,8.67-4.32,11.59-3.82,3.17-8.09,5.67-15,4.15C22.27,19.26,29.26,17,26.27,8.85,24.64,4.41,20.41,4,15.89,3.56Z"/><path class="cls-1" d="M39.9,39.57c.81-1.19,1-1.71,1.2-1.72,7.58-.62,7.25-5.75,7-11.4C47.69,19,48,11.54,48,4L40.45,1.63,40.66.52H63l.34,1.24L56.21,3.92V35.51l7.6,2.8-.52,1.26Z"/></g></g></svg>