<svg xmlns="http://www.w3.org/2000/svg" viewBox="0 0 200.06 90.2"><defs><style>.cls-1{fill:#fefefe;}.cls-2{fill:#010101;}</style></defs><title>Recurso 4starwars</title><g id="Capa_2" data-name="Capa 2"><g id="Capa_1-2" data-name="Capa 1"><path d="M38.71.09l14.8,0H95.94c.39,0,.77,0,1.16,0l.69.21c1.81.75,3.56.1,5.33-.22a1.81,1.81,0,0,1,.8-.08H124.8a1.57,1.57,0,0,1,.8.09c1.67.25,2.52,1.45,3.26,2.79.4.29.47.78.65,1.19.35,1,.69,2.09,1,3.15s.64,2.36,1.09,3.51a61.39,61.39,0,0,0,2.28,6.74c1.14,1.32,2.16,1.21,2.92-.31.12-1.09,0-2.18.05-3.27s0-2.25,0-3.37,0-2.29,0-3.43,0-2.25,0-3.37c.05-.81-.06-1.68.77-2.23a3.81,3.81,0,0,1,2.1-1.39l30.59,0h.23a21.78,21.78,0,0,1,6.88,2.37,3.07,3.07,0,0,1,1.59.95A14.37,14.37,0,0,1,180.9,5.1a26.94,26.94,0,0,1,2,2.24,12.68,12.68,0,0,1,2.46,7.17,18.62,18.62,0,0,1-.63,7.27,2.59,2.59,0,0,1-.11.54,4,4,0,0,0,0,2.18A1.88,1.88,0,0,0,186,25.65c3.49.11,7,0,10.48.05a3.79,3.79,0,0,1,3.43,2.57,6.26,6.26,0,0,1,.13,1.83q0,14.65,0,29.3c-.24,2.2-1.18,3.31-3.36,3.57a82.33,82.33,0,0,1-8.75.15,1.59,1.59,0,0,0-1.24.7,2,2,0,0,0-.26.39,2.77,2.77,0,0,0,.13,1.9,15.73,15.73,0,0,1,1.66,6.73c0,.91,0,1.82,0,2.73a10.17,10.17,0,0,1-.17,2.06A2.88,2.88,0,0,0,189.52,81a8,8,0,0,1,1.63,1,4.6,4.6,0,0,1,1,2.33c0,.69,0,1.38,0,2.07a4,4,0,0,1-1,2.56,3.8,3.8,0,0,1-1.28.84,15.39,15.39,0,0,1-4.93.22,6.66,6.66,0,0,1-2.29-1.22,3.4,3.4,0,0,0-3-.1,27.17,27.17,0,0,1-4.77,1.31,7.26,7.26,0,0,1-1.23.08H141a14.78,14.78,0,0,1-5.1-.87,20.58,20.58,0,0,1-3.16-1.8,3.73,3.73,0,0,0-1.5-1,2.09,2.09,0,0,0-2.43,1.08,5.27,5.27,0,0,0-.53.85,3.5,3.5,0,0,1-2.6,1.71c-8.1.09-16.19,0-24.29,0H97.78c-1.73,0-3.47,0-5.2,0-3,0-4.13-.81-5.22-3.57-.72-1.76-1.37-2.21-3.29-2.22H81.43c-2.25,0-2.73.33-3.57,2.45a5,5,0,0,1-1.43,2.25,4,4,0,0,1-2.94,1.1q-6.93,0-13.86,0a5.68,5.68,0,0,1-1.69-.32,4.07,4.07,0,0,0-4-.16,6.76,6.76,0,0,1-2.7.48c-4.39,0-8.77.06-13.15-.05a4.49,4.49,0,0,1-1.54-.66c-.61-.36-1-1-1.7-1.28-1.54-.5-2.65.24-3.68,1.23a4.5,4.5,0,0,1-1.55.69c-4.69.13-9.38.07-14.07,0a3.67,3.67,0,0,1-3.14-1.86,9.08,9.08,0,0,1-.86-2c-.26-.88-.55-1.75-.84-2.62a12.15,12.15,0,0,0-.33-1.18c-.31-.94-.61-1.88-.88-2.83C9,77.85,8.42,76,7.82,74.25s-.93-3.32-1.51-4.94c-.4-1.3-.86-2.57-1.21-3.88-.23-.72-.36-1.47-.65-2.17C4,62,3.76,60.77,3.29,59.57c-.61-1.73-1.07-3.49-1.59-5.24-.09-.28-.17-.56-.27-.83A24.43,24.43,0,0,1,.29,49.05L0,46.84,0,31.3a14.28,14.28,0,0,1,.2-3.2l1-1.39c.64-1,1.66-1,2.67-1,5.15,0,10.31,0,15.47,0,1.84,0,3.69.11,5.53-.08,1.33-.5,1.39-1.58,1.26-2.75A6.75,6.75,0,0,0,25.48,21a17.36,17.36,0,0,1-.25-10.76c.33-.69.56-1.42.93-2.09a20.62,20.62,0,0,1,2.4-3.11c.47-.33.72-.94,1.36-1.06l2.32-1.77a2.25,2.25,0,0,1,1.85-.94A33.3,33.3,0,0,1,37.86.15Z"/><path class="cls-1" d="M125.3,75.15c0,3.53,0,6.83,0,10.13,0,1-.18,1.37-1.3,1.35-4.52-.07-9,0-13.55,0-.82,0-1.13-.13-1.13-1q0-19.14,0-38.26c0-.68.14-.91.89-.9,9,0,18.06,0,27.09,0,5.93,0,11.66,4.11,13.05,9.45s.2,10.94-5.82,14.55c-.4.24-1.12.34-1,1s.82.75,1.38.86a6.72,6.72,0,0,0,1.27.08h18.88c.35,0,.82.2,1-.24s-.25-.74-.52-1c-1.9-2.16-4.14-4-5.53-6.63-4.19-7.88.25-16.18,9-17.78a15.36,15.36,0,0,1,2.53-.23c7.88,0,15.75,0,23.63,0,.95,0,1.32.15,1.29,1.24-.09,3.62-.06,7.24,0,10.87,0,.8-.2,1-1,1-6.06,0-12.12,0-18.18,0-.33,0-.76-.17-.94.2s.23.6.46.85c1.64,1.78,3.36,3.5,4.93,5.35,6.06,7.16,2.48,18.27-6.55,20.37a12.5,12.5,0,0,1-2.86.34c-10.23,0-20.46.05-30.69,0A11.52,11.52,0,0,1,133.09,83C130.62,80.35,128,77.87,125.3,75.15Z"/><path class="cls-1" d="M23.7,43.46c-6.48,0-13,0-19.45,0-.81,0-1-.2-1-1,0-4,0-8,0-12,0-.95.22-1.21,1.19-1.21,10,0,20,0,30,0h.81c.29,0,.57,0,.69-.32s-.11-.49-.29-.69c-1.42-1.53-2.92-3-4.23-4.59C26.87,18.17,26.81,10.61,32.87,6a12.8,12.8,0,0,1,7.85-2.68q27.45,0,54.89,0c.84,0,1,.23,1,1,0,3.68,0,7.37,0,11,0,.81-.18,1-1,1-5.06,0-10.11,0-15.17-.05-1.07,0-1.24.31-1.24,1.28,0,8.21,0,16.42.06,24.63,0,1.07-.32,1.25-1.29,1.24q-6-.07-12,0c-.88,0-1.07-.22-1.06-1.07,0-8.33,0-16.65,0-25,0-.9-.18-1.14-1.12-1.13-5.56.05-11.12,0-16.68,0-.34,0-.84-.24-1,.24s.29.67.54.94C48.24,19.3,50,21,51.52,22.88c5.51,6.45,3.09,18.4-7.1,20.35a17.49,17.49,0,0,1-3.23.22Z"/><path class="cls-1" d="M22.8,57.26c1-3.49,1.89-6.7,2.76-9.92a1.08,1.08,0,0,1,1.25-1q7.41.07,14.81,0c.73,0,1,.25,1.17.91,1,3.23,2,6.43,3.12,10,.57-1.82,1.06-3.35,1.53-4.89s1-3.22,1.41-4.87c.22-.94.66-1.15,1.57-1.14,4.23.06,8.46,0,12.68,0,1.38,0,1.38,0,1,1.37Q60.22,60.35,56.37,72.9c-1.27,4.19-2.56,8.37-3.77,12.58-.26.92-.67,1.16-1.6,1.15q-5.67-.09-11.35,0c-.88,0-1.18-.33-1.4-1.09-1.29-4.38-2.62-8.75-3.94-13.13-.09-.29-.2-.57-.4-1.14L32,77.41c-.87,2.79-1.76,5.57-2.58,8.36-.2.7-.54.85-1.21.85-3.83,0-7.65,0-11.47,0a1.22,1.22,0,0,1-1.43-1Q10.46,69.8,5.53,54c-.68-2.2-1.31-4.42-2.07-6.59-.33-.94,0-1,.79-1,4.78,0,9.57,0,14.36,0,.73,0,1,.23,1.16.91.87,3.1,1.81,6.19,2.74,9.28C22.55,56.71,22.62,56.84,22.8,57.26Z"/><path class="cls-1" d="M156.27,32.05c0,3.55,0,6.85,0,10.15,0,1-.15,1.31-1.23,1.29-4.55-.07-9.11-.05-13.67,0-.79,0-1-.19-1-1q0-19.08,0-38.16c0-.8.17-1,1-1,8.92,0,17.83,0,26.75,0,6.42,0,12.18,4.27,13.41,10.13,1.19,5.67-.44,10.49-6,13.88-.39.24-1.11.3-1,.95s.74.74,1.28.81a12.68,12.68,0,0,0,1.84.15c6,0,11.89,0,17.84,0,.79,0,1,.15,1,1q-.08,6.14,0,12.26c0,.82-.23,1-1,1-7.53,0-15.06,0-22.59,0a11.59,11.59,0,0,1-8.82-3.61c-2.22-2.36-4.57-4.59-6.86-6.88Z"/><path class="cls-1" d="M82.51,46.4c3.32,0,6.64,0,9.95,0a1.29,1.29,0,0,1,1.46,1.09q5.63,18.21,11.3,36.42c.84,2.7.8,2.71-2.08,2.71-3.59,0-7.18,0-10.77,0-.73,0-1.1-.17-1.3-.91-.35-1.33-.84-2.64-1.21-4a1.11,1.11,0,0,0-1.29-1q-6,.07-11.92,0a1,1,0,0,0-1.11.85c-.41,1.4-.89,2.78-1.28,4.19a.9.9,0,0,1-1,.79c-4.36,0-8.72,0-13.09,0-1,0-1-.36-.75-1.09Q63.8,71,68.2,56.55c.92-3,1.86-6,2.73-9a1.31,1.31,0,0,1,1.54-1.11c3.35.06,6.69,0,10,0Z"/><path class="cls-1" d="M114.19,3.32c3.36,0,6.71,0,10.07,0a1.17,1.17,0,0,1,1.38,1q5.91,19.1,11.88,38.16c.25.79.09,1-.72,1q-6.42,0-12.84,0a1,1,0,0,1-1.12-.84c-.41-1.44-.93-2.85-1.34-4.29a.85.85,0,0,0-1-.72q-6.07,0-12.14,0c-.69,0-.93.3-1.1.9-.4,1.41-.89,2.79-1.27,4.19a.91.91,0,0,1-1,.78c-4.39,0-8.78,0-13.17,0-1,0-.83-.49-.65-1.08Q94.56,31.15,98,19.91c1.56-5.14,3.13-10.28,4.64-15.44a1.36,1.36,0,0,1,1.6-1.17C107.55,3.36,110.87,3.32,114.19,3.32Z"/><path class="cls-2" d="M130.22,62.86c-1.35,0-2.71,0-4.06,0-.54,0-.76-.17-.75-.73,0-1.19,0-2.39,0-3.58,0-.66.29-.76.84-.76,2.51,0,5,0,7.53,0a2.47,2.47,0,0,1,2.74,2.61,2.27,2.27,0,0,1-2.36,2.43C132.84,62.88,131.53,62.86,130.22,62.86Z"/><path d="M161.12,19.78c-1.27,0-2.54,0-3.81,0-.63,0-.92-.16-.9-.84,0-1.15,0-2.3,0-3.46,0-.57.13-.83.77-.82,2.58,0,5.16,0,7.74,0a2.48,2.48,0,0,1,2.61,2.73,2.44,2.44,0,0,1-2.72,2.34h-3.69Z"/><path class="cls-2" d="M82.82,58.7c1.11,3.62,2.12,7,3.16,10.27.22.69,0,.91-.7.91-1.66,0-3.32,0-5,0-.47,0-.91-.06-.72-.69C80.62,65.78,81.68,62.38,82.82,58.7Z"/><path d="M114.56,15.57c1.13,3.66,2.16,7,3.19,10.37.2.65-.09.8-.69.8-1.7,0-3.4,0-5.09,0-.55,0-.8-.15-.61-.75C112.4,22.61,113.43,19.24,114.56,15.57Z"/></g></g></svg>